<?xml version="1.0" standalone="no"?>
<!DOCTYPE svg PUBLIC "-//W3C//DTD SVG 20010904//EN"
 "http://www.w3.org/TR/2001/REC-SVG-20010904/DTD/svg10.dtd">
<svg version="1.0" xmlns="http://www.w3.org/2000/svg"
 width="1400.000000pt" height="1400.000000pt" viewBox="0 0 1400.000000 1400.000000"
 preserveAspectRatio="xMidYMid meet">
<metadata>
Created by potrace 1.11, written by Peter Selinger 2001-2013
</metadata>
<g transform="translate(0.000000,1400.000000) scale(0.100000,-0.100000)"
fill="#000000" stroke="none">
<path d="M0 7000 l0 -7000 7000 0 7000 0 0 7000 0 7000 -7000 0 -7000 0 0
-7000z m10070 3378 c441 -79 723 -151 1055 -268 l120 -43 65 17 c36 9 103 16
152 16 76 0 89 -3 98 -19 6 -13 10 -252 10 -705 0 -667 -1 -686 -19 -696 -22
-11 -83 -13 -118 -4 -17 5 -45 48 -109 173 -116 223 -202 364 -299 493 -354
470 -797 732 -1358 804 -181 23 -584 15 -770 -15 -438 -71 -803 -227 -1100
-469 -79 -65 -247 -230 -247 -243 0 -5 33 -43 73 -86 327 -351 582 -810 692
-1244 170 -671 65 -1472 -276 -2093 -107 -194 -208 -338 -423 -602 l-19 -23
38 -48 c69 -86 268 -276 372 -356 391 -298 823 -451 1386 -489 401 -27 751 36
1082 196 264 127 463 274 716 526 192 191 321 354 433 545 85 144 86 145 145
145 61 0 75 -15 68 -73 -3 -26 -121 -299 -308 -710 -256 -565 -306 -668 -326
-673 -13 -4 -54 0 -91 7 -83 16 -255 16 -342 0 -36 -7 -258 -54 -495 -106
-462 -101 -492 -107 -660 -131 -152 -21 -551 -30 -712 -15 -253 24 -531 81
-768 159 -344 114 -737 318 -1021 532 l-41 31 -84 -53 c-456 -293 -974 -473
-1559 -545 -119 -14 -335 -16 -1799 -20 -916 -2 -1675 -2 -1688 2 -22 5 -23
10 -23 90 l0 85 93 0 c492 0 760 145 797 430 13 101 13 4689 0 4790 -24 181
-145 309 -359 379 -78 25 -232 41 -403 41 l-128 0 0 84 0 83 213 7 c1139 34
2747 43 3087 18 285 -22 600 -68 993 -148 297 -59 541 -158 814 -329 l123 -76
91 66 c392 281 866 478 1404 581 117 22 132 23 670 21 l550 -3 205 -36z"/>
<path d="M3677 10110 c-15 -12 -31 -38 -37 -58 -14 -51 -14 -5208 0 -5283 24
-130 133 -212 340 -257 116 -26 929 -25 1120 1 651 88 1148 300 1543 658 l77
71 -30 36 c-418 500 -625 971 -702 1602 -17 138 -17 612 0 750 77 627 301
1168 675 1633 75 93 86 111 75 125 -7 8 -60 58 -118 110 -412 374 -871 569
-1460 622 -65 5 -408 10 -786 10 -661 0 -672 0 -697 -20z"/>
<path d="M7103 8692 c-93 -240 -155 -497 -190 -782 -24 -200 -24 -707 0 -896
46 -360 143 -711 270 -979 l43 -90 27 59 c106 230 183 518 224 831 22 173 25
677 5 850 -37 315 -104 596 -201 845 -31 77 -123 270 -130 270 -4 0 -25 -49
-48 -108z"/>
</g>
</svg>
